<svg aria-hidden="true" style="width:0;height:0;position:absolute;overflow:hidden" xmlns="http://www.w3.org/2000/svg"><defs><symbol id="menu" viewBox="0 0 43 32"><path d="M.592 3.556c0-1.146.929-2.075 2.075-2.075H40a2.075 2.075 0 1 1 0 4.15H2.667A2.075 2.075 0 0 1 .592 3.556zm0 12.51a2.075 2.075 0 0 1 2.075-2.073H40a2.076 2.076 0 0 1 .003 4.148H2.667a2.075 2.075 0 0 1-2.075-2.075zm2.075 10.437a2.076 2.076 0 0 0-.003 4.148H40l.061.001a2.075 2.075 0 1 0 0-4.15l-.064.001H40 2.667z"/></symbol><symbol id="logo" viewBox="0 0 41 32"><path fill="#ffe550" style="fill:var(--color1,#ffe550)" d="M14.143 6.455c1.01-1.982 3.836-1.982 4.846 0l1.28 2.51a2.729 2.729 0 0 0 1.98 1.45l.016.002 2.772.442c2.196.35 3.07 3.049 1.497 4.625l-1.978 1.983a2.725 2.725 0 0 0-.763 2.372l-.002-.016.437 2.773c.346 2.2-1.94 3.868-3.92 2.858l-2.511-1.278c-.358-.186-.783-.296-1.232-.296s-.874.109-1.247.303l.015-.007-2.511 1.278c-1.98 1.009-4.267-.658-3.92-2.858l.437-2.773a2.725 2.725 0 0 0-.765-2.356l-1.978-1.983c-1.572-1.576-.698-4.276 1.497-4.625l2.772-.441a2.73 2.73 0 0 0 1.989-1.438l.007-.015 1.28-2.51z"/><path fill="#2c2c2c" style="fill:var(--color4,#2c2c2c)" d="m1.116 20.357-.021.005a76.868 76.868 0 0 0-.013 1.932c0 .157-.004.285-.01.384l.001.336c0 .104-.007.207-.021.308l.001-.012-.018.206c-.014.13-.042.201-.084.211-.092.022-.235-.049-.431-.212-.197-.17-.31-.319-.34-.447s-.038-1.06-.023-2.798c.021-1.74-.026-2.884-.14-3.433a.412.412 0 0 1 .014-.274l-.001.003c.036-.166.219-.321.55-.467.338-.147.843-.3 1.514-.459.678-.16 1.216-.25 1.614-.27.405-.021.623.032.652.16.021.085-.025.159-.137.223s-.211.117-.298.16c.121-.039.006.008-.109.054l-.239.085c-.145.049-.279.096-.403.14-.126.037-.288.09-.488.16-.193.068-.372.133-.536.194-.166.054-.39.133-.671.237s-.463.17-.546.197c.012.02.023.05.033.093.079.332.122 1.13.129 2.392a10.72 10.72 0 0 0 1.402-.366c.498-.162.804-.257.917-.284.269-.063.416-.039.443.074.052.22-.212.476-.791.77a8.607 8.607 0 0 1-1.95.697zm6.917-1.951a2.018 2.018 0 0 0-.282-.66l.005.008c-.13-.201-.281-.334-.452-.398-.455.25-.786.729-.992 1.435-.201.698-.236 1.319-.108 1.865s.343.854.644.924c.485-.219.834-.668 1.046-1.346.218-.687.265-1.297.139-1.828zm-2.764.755c.117-.611.33-1.14.642-1.588.318-.457.684-.734 1.102-.833.423-.1.819-.003 1.187.291.366.287.61.689.732 1.206.121.51.121 1.063.001 1.66a3.783 3.783 0 0 1-.72 1.58l.006-.009c-.349.449-.767.731-1.254.846-.361.086-.7-.01-1.019-.286s-.538-.669-.658-1.179c-.123-.517-.129-1.08-.019-1.689zm7.564-1.891a2.018 2.018 0 0 0-.282-.66l.005.008c-.129-.201-.281-.334-.452-.398-.455.25-.786.728-.992 1.434-.201.698-.236 1.32-.107 1.865.129.546.343.854.643.925.486-.22.834-.668 1.047-1.347.218-.687.265-1.296.138-1.828zm-2.763.755a4.1 4.1 0 0 1 .642-1.588c.318-.457.684-.734 1.102-.833.423-.1.82-.004 1.188.291.366.287.61.689.732 1.206.121.51.121 1.063.001 1.66a3.78 3.78 0 0 1-.72 1.579l.006-.009c-.349.449-.767.731-1.254.847-.361.085-.7-.01-1.018-.286s-.538-.669-.659-1.178c-.122-.517-.129-1.08-.019-1.689zm7.769-6.987c.113-.027.276.047.489.221.218.165.349.34.392.524s.079.729.107 1.634c.026.898.031 1.836.015 2.812-.02 2.188-.111 3.301-.273 3.34-.098.023-.223-.011-.371-.103-.143-.101-.226-.197-.247-.289s-.041-.282-.057-.57c-.524.872-1.045 1.369-1.561 1.491-.311.074-.626-.001-.948-.225-.314-.225-.508-.489-.579-.794-.105-.439-.111-.986-.02-1.644a5.612 5.612 0 0 1 .651-1.929l-.015.028c.327-.601.742-.961 1.243-1.079.502-.119.923.099 1.263.654.006-1.586-.077-2.818-.247-3.698-.05-.212.002-.337.158-.374zm.068 5.49c-.091-.382-.234-.689-.431-.919-.188-.232-.375-.326-.559-.282-.303.072-.57.333-.799.783a4.554 4.554 0 0 0-.454 1.452l-.003.024c-.07.525-.063.964.021 1.318a.398.398 0 0 0 .208.275l.002.001a.493.493 0 0 0 .359.038l-.004.001c.276-.065.599-.351.972-.858a3.581 3.581 0 0 0 .696-1.646l.002-.135-.012-.052zm6.764-.636c.137.581-.009 1.131-.438 1.652a3.021 3.021 0 0 1-1.663 1.01c-.671.159-1.266.117-1.786-.127-.522-.25-.819-.532-.892-.843-.051-.212-.012-.334.115-.364.113-.027.375.09.788.352.156.09.352.163.589.219.244.055.486.054.726-.004a2.37 2.37 0 0 0 1.223-.693c.329-.347.457-.669.387-.966-.045-.191-.23-.406-.554-.643a7.357 7.357 0 0 0-1.004-.619l-.042-.02a8.232 8.232 0 0 1-1.061-.677l.021.015c-.326-.244-.511-.455-.553-.632a1.669 1.669 0 0 1-.027-.596l-.001.009c.024-.215.068-.378.13-.49.203-.37.564-.751 1.083-1.143.526-.394.987-.638 1.383-.731a.738.738 0 0 1 .57.081l-.003-.002c.174.101.278.226.313.374.017.071-.044.145-.182.223s-.351.188-.638.33a5.125 5.125 0 0 0-.757.433l.017-.011c-.738.505-1.074.901-1.005 1.191.037.156.553.494 1.548 1.013.414.221.77.474 1.091.767l-.004-.004c.346.3.555.598.625.895zm2.433.534c.032.135.126.183.281.147.268-.064.575-.215.922-.454.351-.247.548-.377.591-.386.127-.03.207.022.239.156.048.206-.108.493-.468.862-.353.368-.703.593-1.049.674-.339.08-.644.055-.913-.075-.271-.138-.43-.306-.477-.505a2.988 2.988 0 0 1-.051-.783c.011-.332.035-.767.071-1.307.042-.548.07-1 .082-1.354-.314.156-.527.248-.64.274s-.239-.003-.379-.09c-.134-.095-.214-.196-.239-.302-.04-.17.381-.442 1.262-.815a7.711 7.711 0 0 0-.178-1.606c-.05-.212-.005-.335.137-.369.12-.028.287.015.5.129.212.106.34.255.385.447s.065.542.058 1.052c.394-.131.711-.225.951-.281.425-.101.658-.058.702.126.025.106-.071.222-.287.348-.209.124-.663.348-1.363.67-.016.594-.052 1.28-.107 2.055-.057.769-.067 1.231-.03 1.386zm4.735-5.562c.318-.075.649.018.995.281.343.255.546.513.608.775.06.255.034.538-.079.849.11.086.174.167.193.246.047.198.081.549.103 1.052.03.502.051.829.065.983.021.152.036.276.043.371.006.089.009.177.007.268.014.183-.029.287-.128.311-.127.03-.258-.055-.396-.254a3.191 3.191 0 0 1-.343-.838c-.44.949-.928 1.487-1.465 1.614-.325.077-.679.015-1.062-.186-.378-.209-.602-.463-.672-.761-.1-.425-.069-.986.095-1.682.173-.744.452-1.4.826-1.99l-.015.026c.379-.606.788-.96 1.225-1.065zm.929 1.754c-.156-.658-.364-.957-.626-.895-.275.065-.55.34-.823.823a5.777 5.777 0 0 0-.61 1.508l-.009.041c-.137.556-.171.979-.103 1.27a.373.373 0 0 0 .217.261l.002.001a.6.6 0 0 0 .374.023c.332-.079.654-.39.965-.935a3.83 3.83 0 0 0 .48-1.852c-.004-.111.041-.189.135-.234l-.002-.01z"/><path fill="#bbf330" style="fill:var(--color2,#bbf330)" d="M30.759 19.973a.913.913 0 0 0-.641.602c-1.906 5.649-7.244 9.719-13.535 9.719-3.815 0-7.28-1.496-9.841-3.934a.91.91 0 0 0-.852-.231l.006-.001c-.639.158-.88.935-.406 1.392a15.864 15.864 0 0 0 11.072 4.481h.021-.001c7.078 0 13.081-4.606 15.182-10.986.206-.626-.368-1.199-1.006-1.041zM1.866 14.15a.908.908 0 0 0 .664-.719l.001-.005C3.742 6.761 9.57 1.706 16.582 1.706a14.25 14.25 0 0 1 11.232 5.465.903.903 0 0 0 .923.328c.583-.145.847-.825.478-1.301C26.291 2.428 21.72 0 16.581 0 8.7 0 2.151 5.711.839 13.225c-.103.593.445 1.07 1.028.926zm38.749-8.818c-3.777 7.241-5.435 2.465-10.753 5.27.532-8.405 6.163-3.291 10.753-5.27z"/></symbol><symbol id="order_finger" viewBox="0 0 32 32"><path fill="#fff" style="fill:var(--color5,#fff)" d="M32 16c0 8.837-7.163 16-16 16S0 24.837 0 16 7.163 0 16 0s16 7.163 16 16z"/><path fill="#7eb101" style="fill:var(--color3,#7eb101)" d="M15.667 6.222c1.349 0 2.5.471 3.456 1.411s1.433 2.085 1.433 3.433a4.9 4.9 0 0 1-.5 2.178 4.951 4.951 0 0 1-1.4 1.725l-.011.008h-.755v-1.111c.418-.33.752-.747.98-1.224l.009-.021c.218-.451.345-.981.345-1.54v-.016.001c0-.978-.349-1.807-1.045-2.489s-1.533-1.023-2.511-1.023c-.977 0-1.815.341-2.511 1.023s-1.045 1.511-1.045 2.489c0 .548.115 1.067.345 1.555.236.498.571.915.981 1.239l.007.005v1.6a4.875 4.875 0 0 1-1.943-1.801l-.012-.021a4.84 4.84 0 0 1-.711-2.541v-.039.002c0-1.348.478-2.493 1.433-3.433s2.107-1.411 3.455-1.411zm-.844 18.667c-.252 0-.489-.048-.711-.144a1.86 1.86 0 0 1-.578-.389l-4.577-4.577 1.244-1.289c.207-.207.441-.367.7-.477a1.191 1.191 0 0 1 .82-.054l-.009-.002 1.733.4v-7.244c0-.623.215-1.149.645-1.578s.955-.645 1.577-.645c.623 0 1.149.215 1.578.645s.645.955.645 1.578v3.822h.577c.074 0 .141.015.2.045s.127.059.2.089l3.289 1.6c.355.163.618.426.789.789s.219.737.145 1.123l-.8 4.844c-.071.431-.298.8-.619 1.053l-.004.003a1.783 1.783 0 0 1-1.143.411h-5.701zm-.178-1.334h6.245l.955-5.533L17.778 16h-1.222v-4.889c0-.267-.082-.482-.245-.645s-.378-.245-.645-.245-.481.082-.644.245c-.163.163-.245.378-.245.645v8.867l-3.422-.733-.511.511 3.8 3.8zm6.244 0z"/></symbol><symbol id="order_rocket" viewBox="0 0 32 32"><path fill="#fff" style="fill:var(--color5,#fff)" d="M32 16c0 8.837-7.163 16-16 16S0 24.837 0 16 7.163 0 16 0s16 7.163 16 16z"/><path fill="#7eb101" style="fill:var(--color3,#7eb101)" d="m9.489 14.422 2.356 1c.267-.533.551-1.059.855-1.577s.626-1.015.967-1.489l-1.755-.355-2.423 2.422zm3.422 1.8 2.955 2.956a17.39 17.39 0 0 0 2.442-1.351l-.064.04c.74-.489 1.34-.963 1.8-1.422 1.2-1.2 2.081-2.43 2.644-3.689s.867-2.681.911-4.267c-1.585.045-3.007.349-4.267.911s-2.489 1.445-3.689 2.645c-.46.459-.933 1.059-1.423 1.8a17.031 17.031 0 0 0-1.266 2.269l-.045.108zM18 14.089c-.296-.296-.445-.663-.445-1.1s.149-.803.445-1.1c.296-.296.663-.444 1.1-.444s.804.148 1.1.444c.296.297.445.663.445 1.1s-.149.804-.445 1.1c-.296.297-.663.445-1.1.445s-.804-.148-1.1-.445zm-.333 8.511 2.422-2.422-.355-1.756c-.474.341-.971.663-1.489.967s-1.045.589-1.578.856l1 2.355zm7.244-15.422c.133 2.015-.119 3.851-.756 5.511S22.466 15.912 21 17.378l-.045.044-.044.045.489 2.445c.045.222.033.437-.033.644s-.181.393-.345.556l-3.8 3.822-1.889-4.4-3.778-3.778-4.4-1.889 3.823-3.8c.163-.163.348-.278.555-.345s.422-.077.645-.033l2.444.489a.181.181 0 0 1 .044-.033h.001a.187.187 0 0 0 .045-.033c1.467-1.467 3.029-2.523 4.689-3.167s3.496-.9 5.511-.767zM8.645 19.445c.518-.519 1.151-.782 1.9-.789s1.381.249 1.9.767c.518.519.773 1.152.767 1.9s-.271 1.382-.789 1.9c-.385.385-.981.704-1.789.956s-2.019.489-3.633.711c.222-1.615.455-2.829.7-3.644s.559-1.415.945-1.8zm.933.955c-.207.222-.393.571-.556 1.045s-.303 1.081-.422 1.822c.741-.119 1.348-.259 1.822-.422s.823-.349 1.045-.556c.281-.251.426-.567.433-.944l.001-.041c0-.37-.149-.705-.389-.949a1.345 1.345 0 0 0-.949-.389l-.042.001h.002a1.248 1.248 0 0 0-.943.432l-.001.002z"/></symbol><symbol id="close_btn" viewBox="0 0 32 32"><path d="m16.219 14.826 4.928-4.923a1.013 1.013 0 0 0-1.431-1.428l.001-.001-4.927 4.874-4.959-4.955a1.014 1.014 0 0 0-1.427 1.429l-.001-.002 4.948 5.006-4.847 4.782a1.013 1.013 0 1 0 1.429 1.43l.001-.001 4.836-4.832 4.806 4.801a1.014 1.014 0 0 0 1.427-1.429l.001.002-4.785-4.751z"/></symbol><symbol id="icon-star_rank" viewBox="0 0 34 32"><path fill="#ffe550" style="fill:var(--color1,#ffe550)" d="M15.42 1.038c.584-1.384 2.576-1.384 3.16 0L22.028 9.2c.246.582.804.98 1.444 1.032l8.952.706c1.516.12 2.132 1.982.976 2.958l-6.82 5.752a1.666 1.666 0 0 0-.55 1.682l-.002-.011 2.084 8.6c.352 1.456-1.258 2.608-2.556 1.828l-7.664-4.61a1.734 1.734 0 0 0-1.792.004l.008-.004-7.664 4.61c-1.3.78-2.908-.372-2.556-1.828l2.084-8.6a1.663 1.663 0 0 0-.55-1.667l-.003-.002-6.82-5.75c-1.156-.976-.54-2.84.976-2.96l8.952-.704a1.714 1.714 0 0 0 1.44-1.021l.004-.011 3.448-8.164z"/></symbol><symbol id="icon_error" viewBox="0 0 32 32"><path fill="none" stroke="#ff705d" style="stroke:var(--color1,#ff705d)" stroke-linejoin="round" stroke-linecap="round" stroke-width="2.285" d="M16 11.429v6.856m0 8a1.144 1.144 0 1 0-.003-2.286H16a1.144 1.144 0 0 0-.003 2.286H16z"/><path fill="none" stroke="#ff705d" style="stroke:var(--color1,#ff705d)" stroke-linejoin="round" stroke-linecap="round" stroke-width="2.285" d="M18.035 2.4a2.284 2.284 0 0 0-4.06-.012l-.006.013L1.396 27.542a2.285 2.285 0 0 0 2.034 3.314h25.144a2.285 2.285 0 0 0 2.028-3.325l.006.013L18.035 2.397z"/></symbol><symbol id="arrow_right" viewBox="0 0 37 32"><path fill="#fff" style="fill:var(--color1,#fff)" d="M34.667 5.333v16a5.333 5.333 0 0 1-5.333 5.333H8.001a5.333 5.333 0 0 1-5.333-5.333v-16A5.333 5.333 0 0 1 8.001 0h21.333a5.333 5.333 0 0 1 5.333 5.333z"/><path d="m25.7 12.73-9.289-8.85a.832.832 0 0 0-1.15 0l-.01.01a.764.764 0 0 0 0 1.111l8.747 8.333-8.747 8.331a.764.764 0 0 0 0 1.111l.01.01a.832.832 0 0 0 1.15 0l9.289-8.85a.832.832 0 0 0 0-1.206z"/></symbol><symbol id="arrow_left" viewBox="0 0 37 32"><path fill="#fff" style="fill:var(--color1,#fff)" d="M2.667 21.333v-16A5.333 5.333 0 0 1 8 0h21.333a5.333 5.333 0 0 1 5.333 5.333v16a5.333 5.333 0 0 1-5.333 5.333H8a5.333 5.333 0 0 1-5.333-5.333z"/><path d="m11.633 13.937 9.289 8.85a.832.832 0 0 0 1.15 0l.01-.01a.764.764 0 0 0 0-1.111l-8.747-8.333 8.747-8.33a.765.765 0 0 0 .001-1.112l-.01-.01a.832.832 0 0 0-1.15 0l-9.289 8.85a.832.832 0 0 0 0 1.206z"/></symbol></defs></svg>