<svg aria-hidden="true" style="position: absolute; width: 0; height: 0; overflow: hidden;" version="1.1" xmlns="http://www.w3.org/2000/svg" xmlns:xlink="http://www.w3.org/1999/xlink">
<defs>
<symbol id="arrow_left" viewBox="0 0 18 32">
<path d="M17.653 15.035l-14.862-14.16c-0.239-0.228-0.563-0.368-0.92-0.368s-0.681 0.14-0.921 0.369l0.001-0-0.016 0.016c-0.235 0.224-0.382 0.539-0.382 0.889s0.146 0.665 0.381 0.889l0 0 13.995 13.333-13.995 13.328c-0.236 0.224-0.383 0.54-0.383 0.89s0.147 0.666 0.382 0.889l0.001 0 0.016 0.016c0.239 0.228 0.563 0.368 0.92 0.368s0.681-0.14 0.921-0.369l-0.001 0 14.862-14.16c0.255-0.243 0.413-0.586 0.413-0.965s-0.158-0.722-0.413-0.965l-0-0z"></path>
</symbol>
<symbol id="menu" viewBox="0 0 43 32">
<path  d="M0.592 3.556c0-1.146 0.929-2.075 2.075-2.075v0h37.333c1.146 0 2.075 0.929 2.075 2.075s-0.929 2.075-2.075 2.075h-37.333c-1.146 0-2.075-0.929-2.075-2.075v0zM0.592 16.066c0.001-1.145 0.929-2.073 2.075-2.073 0 0 0 0 0 0h37.333c1.119 0.034 2.014 0.949 2.014 2.074s-0.895 2.040-2.011 2.074l-0.003 0h-37.333c-1.146 0-2.075-0.929-2.075-2.075v0zM2.667 26.503c-1.119 0.034-2.014 0.949-2.014 2.074s0.895 2.040 2.011 2.074l0.003 0h37.333c0.018 0.001 0.039 0.001 0.061 0.001 1.146 0 2.075-0.929 2.075-2.075s-0.929-2.075-2.075-2.075c-0.021 0-0.043 0-0.064 0.001l0.003-0h-37.333z"></path>
</symbol>
<symbol id="arrow_right" viewBox="0 0 18 32">
<path d="M17.653 15.035l-14.862-14.16c-0.239-0.228-0.563-0.368-0.92-0.368s-0.681 0.14-0.921 0.369l0.001-0-0.016 0.016c-0.235 0.224-0.382 0.539-0.382 0.889s0.146 0.665 0.381 0.889l0 0 13.995 13.333-13.995 13.328c-0.236 0.224-0.382 0.54-0.382 0.89s0.147 0.666 0.382 0.889l0.001 0 0.016 0.016c0.239 0.228 0.563 0.368 0.92 0.368s0.681-0.14 0.921-0.369l-0.001 0 14.862-14.16c0.255-0.243 0.413-0.586 0.413-0.965s-0.158-0.722-0.413-0.965l-0-0z"></path>
</symbol>
<symbol id="logo" viewBox="0 0 41 32">
<path fill="#ffe550" style="fill: var(--color1, #ffe550)" d="M14.143 6.455c1.010-1.982 3.836-1.982 4.846 0l1.28 2.51c0.395 0.763 1.119 1.309 1.98 1.45l0.016 0.002 2.772 0.442c2.196 0.35 3.070 3.049 1.497 4.625l-1.978 1.983c-0.493 0.494-0.798 1.177-0.798 1.93 0 0.15 0.012 0.298 0.035 0.442l-0.002-0.016 0.437 2.773c0.346 2.2-1.94 3.868-3.92 2.858l-2.511-1.278c-0.358-0.186-0.783-0.296-1.232-0.296s-0.874 0.109-1.247 0.303l0.015-0.007-2.511 1.278c-1.98 1.009-4.267-0.658-3.92-2.858l0.437-2.773c0.021-0.128 0.033-0.275 0.033-0.426 0-0.753-0.305-1.436-0.798-1.93l0 0-1.978-1.983c-1.572-1.576-0.698-4.276 1.497-4.625l2.772-0.441c0.877-0.144 1.601-0.689 1.989-1.438l0.007-0.015 1.28-2.51z"></path>
<path fill="#2c2c2c" style="fill: var(--color4, #2c2c2c)" d="M1.116 20.357l-0.021 0.005c0.002 0.074-0.001 0.374-0.011 0.9-0.003 0.524-0.004 0.868-0.002 1.032 0 0.157-0.004 0.285-0.010 0.384l0.001 0.336c-0 0.104-0.007 0.207-0.021 0.308l0.001-0.012-0.018 0.206c-0.014 0.13-0.042 0.201-0.084 0.211-0.092 0.022-0.235-0.049-0.431-0.212-0.197-0.17-0.31-0.319-0.34-0.447s-0.038-1.060-0.023-2.798c0.021-1.74-0.026-2.884-0.14-3.433-0.011-0.035-0.017-0.075-0.017-0.116 0-0.056 0.011-0.11 0.031-0.158l-0.001 0.003c0.036-0.166 0.219-0.321 0.55-0.467 0.338-0.147 0.843-0.3 1.514-0.459 0.678-0.16 1.216-0.25 1.614-0.27 0.405-0.021 0.623 0.032 0.652 0.16 0.021 0.085-0.025 0.159-0.137 0.223s-0.211 0.117-0.298 0.16c0.121-0.039 0.006 0.008-0.109 0.054l-0.239 0.085c-0.145 0.049-0.279 0.096-0.403 0.14-0.126 0.037-0.288 0.090-0.488 0.16-0.193 0.068-0.372 0.133-0.536 0.194-0.166 0.054-0.39 0.133-0.671 0.237s-0.463 0.17-0.546 0.197c0.012 0.020 0.023 0.050 0.033 0.093 0.079 0.332 0.122 1.13 0.129 2.392 0.443-0.082 0.911-0.204 1.402-0.366 0.498-0.162 0.804-0.257 0.917-0.284 0.269-0.063 0.416-0.039 0.443 0.074 0.052 0.22-0.212 0.476-0.791 0.77-0.572 0.293-1.222 0.525-1.95 0.697zM8.033 18.406c-0.058-0.247-0.153-0.465-0.282-0.66l0.005 0.008c-0.13-0.201-0.281-0.334-0.452-0.398-0.455 0.25-0.786 0.729-0.992 1.435-0.201 0.698-0.236 1.319-0.108 1.865s0.343 0.854 0.644 0.924c0.485-0.219 0.834-0.668 1.046-1.346 0.218-0.687 0.265-1.297 0.139-1.828zM5.269 19.161c0.117-0.611 0.33-1.14 0.642-1.588 0.318-0.457 0.684-0.734 1.102-0.833 0.423-0.1 0.819-0.003 1.187 0.291 0.366 0.287 0.61 0.689 0.732 1.206 0.121 0.51 0.121 1.063 0.001 1.66-0.122 0.602-0.372 1.131-0.72 1.58l0.006-0.009c-0.349 0.449-0.767 0.731-1.254 0.846-0.361 0.086-0.7-0.010-1.019-0.286s-0.538-0.669-0.658-1.179c-0.123-0.517-0.129-1.080-0.019-1.689zM12.833 17.27c-0.058-0.247-0.153-0.465-0.282-0.66l0.005 0.008c-0.129-0.201-0.281-0.334-0.452-0.398-0.455 0.25-0.786 0.728-0.992 1.434-0.201 0.698-0.236 1.32-0.107 1.865 0.129 0.546 0.343 0.854 0.643 0.925 0.486-0.22 0.834-0.668 1.047-1.347 0.218-0.687 0.265-1.296 0.138-1.828zM10.070 18.025c0.117-0.611 0.331-1.14 0.642-1.588 0.318-0.457 0.684-0.734 1.102-0.833 0.423-0.1 0.82-0.004 1.188 0.291 0.366 0.287 0.61 0.689 0.732 1.206 0.121 0.51 0.121 1.063 0.001 1.66-0.122 0.601-0.372 1.131-0.72 1.579l0.006-0.009c-0.349 0.449-0.767 0.731-1.254 0.847-0.361 0.085-0.7-0.010-1.018-0.286s-0.538-0.669-0.659-1.178c-0.122-0.517-0.129-1.080-0.019-1.689zM17.839 11.038c0.113-0.027 0.276 0.047 0.489 0.221 0.218 0.165 0.349 0.34 0.392 0.524s0.079 0.729 0.107 1.634c0.026 0.898 0.031 1.836 0.015 2.812-0.020 2.188-0.111 3.301-0.273 3.34-0.098 0.023-0.223-0.011-0.371-0.103-0.143-0.101-0.226-0.197-0.247-0.289s-0.041-0.282-0.057-0.57c-0.524 0.872-1.045 1.369-1.561 1.491-0.311 0.074-0.626-0.001-0.948-0.225-0.314-0.225-0.508-0.489-0.579-0.794-0.105-0.439-0.111-0.986-0.020-1.644 0.105-0.711 0.329-1.351 0.651-1.929l-0.015 0.028c0.327-0.601 0.742-0.961 1.243-1.079 0.502-0.119 0.923 0.099 1.263 0.654 0.006-1.586-0.077-2.818-0.247-3.698-0.050-0.212 0.002-0.337 0.158-0.374zM17.907 16.528c-0.091-0.382-0.234-0.689-0.431-0.919-0.188-0.232-0.375-0.326-0.559-0.282-0.303 0.072-0.57 0.333-0.799 0.783-0.221 0.428-0.381 0.926-0.454 1.452l-0.003 0.024c-0.070 0.525-0.063 0.964 0.021 1.318 0.025 0.122 0.103 0.221 0.208 0.275l0.002 0.001c0.067 0.035 0.145 0.055 0.229 0.055 0.045 0 0.089-0.006 0.13-0.017l-0.004 0.001c0.276-0.065 0.599-0.351 0.972-0.858 0.379-0.509 0.611-1.057 0.696-1.646l0.002-0.135-0.012-0.052zM24.671 15.892c0.137 0.581-0.009 1.131-0.438 1.652-0.431 0.513-0.985 0.849-1.663 1.010-0.671 0.159-1.266 0.117-1.786-0.127-0.522-0.25-0.819-0.532-0.892-0.843-0.051-0.212-0.012-0.334 0.115-0.364 0.113-0.027 0.375 0.090 0.788 0.352 0.156 0.090 0.352 0.163 0.589 0.219 0.244 0.055 0.486 0.054 0.726-0.004 0.495-0.117 0.902-0.348 1.223-0.693 0.329-0.347 0.457-0.669 0.387-0.966-0.045-0.191-0.23-0.406-0.554-0.643-0.302-0.223-0.645-0.435-1.004-0.619l-0.042-0.020c-0.399-0.215-0.739-0.435-1.061-0.677l0.021 0.015c-0.326-0.244-0.511-0.455-0.553-0.632-0.026-0.112-0.041-0.24-0.041-0.372 0-0.076 0.005-0.151 0.014-0.224l-0.001 0.009c0.024-0.215 0.068-0.378 0.13-0.49 0.203-0.37 0.564-0.751 1.083-1.143 0.526-0.394 0.987-0.638 1.383-0.731 0.056-0.015 0.121-0.024 0.188-0.024 0.14 0 0.27 0.038 0.382 0.105l-0.003-0.002c0.174 0.101 0.278 0.226 0.313 0.374 0.017 0.071-0.044 0.145-0.182 0.223s-0.351 0.188-0.638 0.33c-0.285 0.134-0.528 0.274-0.757 0.433l0.017-0.011c-0.738 0.505-1.074 0.901-1.005 1.191 0.037 0.156 0.553 0.494 1.548 1.013 0.414 0.221 0.77 0.474 1.091 0.767l-0.004-0.004c0.346 0.3 0.555 0.598 0.625 0.895zM27.104 16.426c0.032 0.135 0.126 0.183 0.281 0.147 0.268-0.064 0.575-0.215 0.922-0.454 0.351-0.247 0.548-0.377 0.591-0.386 0.127-0.030 0.207 0.022 0.239 0.156 0.048 0.206-0.108 0.493-0.468 0.862-0.353 0.368-0.703 0.593-1.049 0.674-0.339 0.080-0.644 0.055-0.913-0.075-0.271-0.138-0.43-0.306-0.477-0.505-0.047-0.198-0.064-0.459-0.051-0.783 0.011-0.332 0.035-0.767 0.071-1.307 0.042-0.548 0.070-1 0.082-1.354-0.314 0.156-0.527 0.248-0.64 0.274s-0.239-0.003-0.379-0.090c-0.134-0.095-0.214-0.196-0.239-0.302-0.040-0.17 0.381-0.442 1.262-0.815-0.012-0.618-0.071-1.153-0.178-1.606-0.050-0.212-0.005-0.335 0.137-0.369 0.12-0.028 0.287 0.015 0.5 0.129 0.212 0.106 0.34 0.255 0.385 0.447s0.065 0.542 0.058 1.052c0.394-0.131 0.711-0.225 0.951-0.281 0.425-0.101 0.658-0.058 0.702 0.126 0.025 0.106-0.071 0.222-0.287 0.348-0.209 0.124-0.663 0.348-1.363 0.67-0.016 0.594-0.052 1.28-0.107 2.055-0.057 0.769-0.067 1.231-0.030 1.386zM31.839 10.864c0.318-0.075 0.649 0.018 0.995 0.281 0.343 0.255 0.546 0.513 0.608 0.775 0.060 0.255 0.034 0.538-0.079 0.849 0.11 0.086 0.174 0.167 0.193 0.246 0.047 0.198 0.081 0.549 0.103 1.052 0.030 0.502 0.051 0.829 0.065 0.983 0.021 0.152 0.036 0.276 0.043 0.371 0.006 0.089 0.009 0.177 0.007 0.268 0.014 0.183-0.029 0.287-0.128 0.311-0.127 0.030-0.258-0.055-0.396-0.254-0.131-0.208-0.246-0.488-0.343-0.838-0.44 0.949-0.928 1.487-1.465 1.614-0.325 0.077-0.679 0.015-1.062-0.186-0.378-0.209-0.602-0.463-0.672-0.761-0.1-0.425-0.069-0.986 0.095-1.682 0.173-0.744 0.452-1.4 0.826-1.99l-0.015 0.026c0.379-0.606 0.788-0.96 1.225-1.065zM32.768 12.618c-0.156-0.658-0.364-0.957-0.626-0.895-0.275 0.065-0.55 0.34-0.823 0.823-0.261 0.446-0.474 0.962-0.61 1.508l-0.009 0.041c-0.137 0.556-0.171 0.979-0.103 1.27 0.027 0.119 0.109 0.215 0.217 0.261l0.002 0.001c0.115 0.047 0.24 0.055 0.374 0.023 0.332-0.079 0.654-0.39 0.965-0.935 0.31-0.551 0.47-1.169 0.48-1.852-0.004-0.111 0.041-0.189 0.135-0.234l-0.002-0.010z"></path>
<path fill="#bbf330" style="fill: var(--color2, #bbf330)" d="M30.759 19.973c-0.303 0.075-0.542 0.306-0.641 0.602-1.906 5.649-7.244 9.719-13.535 9.719-3.815 0-7.28-1.496-9.841-3.934-0.164-0.159-0.388-0.257-0.635-0.257-0.075 0-0.147 0.009-0.217 0.026l0.006-0.001c-0.639 0.158-0.88 0.935-0.406 1.392 2.861 2.772 6.767 4.481 11.072 4.481 0.007 0 0.014 0 0.021 0h-0.001c7.078 0 13.081-4.606 15.182-10.986 0.206-0.626-0.368-1.199-1.006-1.041zM1.866 14.15c0.343-0.091 0.603-0.371 0.664-0.719l0.001-0.005c1.211-6.665 7.039-11.72 14.051-11.72 4.559 0 8.617 2.137 11.232 5.465 0.219 0.279 0.578 0.413 0.923 0.328 0.583-0.145 0.847-0.825 0.478-1.301-2.924-3.77-7.495-6.198-12.634-6.198-7.881 0-14.43 5.711-15.742 13.225-0.103 0.593 0.445 1.070 1.028 0.926zM40.615 5.332c-3.777 7.241-5.435 2.465-10.753 5.27 0.532-8.405 6.163-3.291 10.753-5.27z"></path>
</symbol>
<symbol id="order_finger" viewBox="0 0 32 32">
<path fill="#fff" style="fill: var(--color5, #fff)" d="M32 16c0 8.837-7.163 16-16 16s-16-7.163-16-16c0-8.837 7.163-16 16-16s16 7.163 16 16z"></path>
<path fill="#7eb101" style="fill: var(--color3, #7eb101)" d="M15.667 6.222c1.349 0 2.5 0.471 3.456 1.411s1.433 2.085 1.433 3.433c0 0.77-0.167 1.496-0.5 2.178-0.343 0.694-0.82 1.273-1.4 1.725l-0.011 0.008h-0.755v-1.111c0.418-0.33 0.752-0.747 0.98-1.224l0.009-0.021c0.218-0.451 0.345-0.981 0.345-1.54 0-0.005 0-0.011-0-0.016v0.001c0-0.978-0.349-1.807-1.045-2.489s-1.533-1.023-2.511-1.023c-0.977 0-1.815 0.341-2.511 1.023s-1.045 1.511-1.045 2.489c0 0.548 0.115 1.067 0.345 1.555 0.236 0.498 0.571 0.915 0.981 1.239l0.007 0.005v1.6c-0.818-0.422-1.482-1.043-1.943-1.801l-0.012-0.021c-0.447-0.724-0.711-1.602-0.711-2.541 0-0.013 0-0.026 0-0.039v0.002c0-1.348 0.478-2.493 1.433-3.433s2.107-1.411 3.455-1.411zM14.823 24.889c-0.252 0-0.489-0.048-0.711-0.144-0.224-0.097-0.416-0.228-0.578-0.389l-4.577-4.577 1.244-1.289c0.207-0.207 0.441-0.367 0.7-0.477 0.143-0.064 0.309-0.101 0.485-0.101 0.116 0 0.229 0.016 0.335 0.047l-0.009-0.002 1.733 0.4v-7.244c0-0.623 0.215-1.149 0.645-1.578s0.955-0.645 1.577-0.645c0.623 0 1.149 0.215 1.578 0.645s0.645 0.955 0.645 1.578v3.822h0.577c0.074 0 0.141 0.015 0.2 0.045s0.127 0.059 0.2 0.089l3.289 1.6c0.355 0.163 0.618 0.426 0.789 0.789s0.219 0.737 0.145 1.123l-0.8 4.844c-0.071 0.431-0.298 0.8-0.619 1.053l-0.004 0.003c-0.308 0.256-0.707 0.411-1.143 0.411-0.004 0-0.009-0-0.013-0h-5.688zM14.645 23.555h6.245l0.955-5.533-4.067-2.022h-1.222v-4.889c0-0.267-0.082-0.482-0.245-0.645s-0.378-0.245-0.645-0.245-0.481 0.082-0.644 0.245c-0.163 0.163-0.245 0.378-0.245 0.645v8.867l-3.422-0.733-0.511 0.511 3.8 3.8zM20.889 23.555v0z"></path>
</symbol>
<symbol id="order_rocket" viewBox="0 0 32 32">
<path fill="#fff" style="fill: var(--color5, #fff)" d="M32 16c0 8.837-7.163 16-16 16s-16-7.163-16-16c0-8.837 7.163-16 16-16s16 7.163 16 16z"></path>
<path fill="#7eb101" style="fill: var(--color3, #7eb101)" d="M9.489 14.422l2.356 1c0.267-0.533 0.551-1.059 0.855-1.577s0.626-1.015 0.967-1.489l-1.755-0.355-2.423 2.422zM12.911 16.222l2.955 2.956c0.922-0.422 1.702-0.859 2.442-1.351l-0.064 0.040c0.74-0.489 1.34-0.963 1.8-1.422 1.2-1.2 2.081-2.43 2.644-3.689s0.867-2.681 0.911-4.267c-1.585 0.045-3.007 0.349-4.267 0.911s-2.489 1.445-3.689 2.645c-0.46 0.459-0.933 1.059-1.423 1.8-0.452 0.676-0.889 1.456-1.266 2.269l-0.045 0.108zM18 14.089c-0.296-0.296-0.445-0.663-0.445-1.1s0.149-0.803 0.445-1.1c0.296-0.296 0.663-0.444 1.1-0.444s0.804 0.148 1.1 0.444c0.296 0.297 0.445 0.663 0.445 1.1s-0.149 0.804-0.445 1.1c-0.296 0.297-0.663 0.445-1.1 0.445s-0.804-0.148-1.1-0.445zM17.667 22.6l2.422-2.422-0.355-1.756c-0.474 0.341-0.971 0.663-1.489 0.967s-1.045 0.589-1.578 0.856l1 2.355zM24.911 7.178c0.133 2.015-0.119 3.851-0.756 5.511s-1.689 3.223-3.155 4.689l-0.045 0.044-0.044 0.045 0.489 2.445c0.045 0.222 0.033 0.437-0.033 0.644s-0.181 0.393-0.345 0.556l-3.8 3.822-1.889-4.4-3.778-3.778-4.4-1.889 3.823-3.8c0.163-0.163 0.348-0.278 0.555-0.345s0.422-0.077 0.645-0.033l2.444 0.489c0.013-0.013 0.027-0.024 0.044-0.033l0.001-0c0.017-0.009 0.032-0.020 0.045-0.033l0-0c1.467-1.467 3.029-2.523 4.689-3.167s3.496-0.9 5.511-0.767zM8.645 19.445c0.518-0.519 1.151-0.782 1.9-0.789s1.381 0.249 1.9 0.767c0.518 0.519 0.773 1.152 0.767 1.9s-0.271 1.382-0.789 1.9c-0.385 0.385-0.981 0.704-1.789 0.956s-2.019 0.489-3.633 0.711c0.222-1.615 0.455-2.829 0.7-3.644s0.559-1.415 0.945-1.8zM9.578 20.4c-0.207 0.222-0.393 0.571-0.556 1.045s-0.303 1.081-0.422 1.822c0.741-0.119 1.348-0.259 1.822-0.422s0.823-0.349 1.045-0.556c0.281-0.251 0.426-0.567 0.433-0.944 0-0.012 0.001-0.026 0.001-0.041 0-0.37-0.149-0.705-0.389-0.949l0 0c-0.244-0.241-0.579-0.389-0.949-0.389-0.014 0-0.028 0-0.042 0.001l0.002-0c-0.377 0.001-0.714 0.168-0.943 0.432l-0.001 0.002z"></path>
</symbol>
<symbol id="close_btn" viewBox="0 0 30 32">
<path d="M16.219 14.826l4.928-4.923c0.156-0.177 0.252-0.412 0.252-0.668 0-0.559-0.453-1.013-1.013-1.013-0.257 0-0.492 0.096-0.67 0.253l0.001-0.001-4.927 4.874-4.959-4.955c-0.175-0.146-0.402-0.235-0.649-0.235-0.56 0-1.014 0.454-1.014 1.014 0 0.247 0.089 0.474 0.236 0.65l-0.001-0.002 4.948 5.006-4.847 4.782c-0.211 0.187-0.344 0.458-0.344 0.76 0 0.559 0.454 1.013 1.013 1.013 0.303 0 0.574-0.133 0.76-0.343l0.001-0.001 4.836-4.832 4.806 4.801c0.175 0.146 0.402 0.235 0.649 0.235 0.56 0 1.014-0.454 1.014-1.014 0-0.247-0.089-0.474-0.236-0.65l0.001 0.002-4.785-4.751z"></path>
</symbol>
</defs>
</svg>
